{
  "asset": {
    "generator": "Khronos glTF Blender I/O v1.2.75",
    "version": "2.0"
  },
  "extensionsUsed": ["KHR_lights_punctual"],
  "extensionsRequired": ["KHR_lights_punctual"],
  "extensions": {
    "KHR_lights_punctual": {
      "lights": [
        {
          "color": [0.39320942759513855, 0.5431056022644043, 1],
          "intensity": 50,
          "type": "point",
          "range": 1.899999976158142,
          "name": "White Exhaust Center"
        },
        {
          "color": [0.11826970428228378, 0.35886403918266296, 1],
          "intensity": 100,
          "type": "point",
          "range": 3.5,
          "name": "Blue Exhaust Center.001"
        },
        {
          "color": [0.39320942759513855, 0.5431056022644043, 1],
          "intensity": 50,
          "type": "point",
          "range": 1.600000023841858,
          "name": "White Exhaust Left"
        },
        {
          "color": [0.11826970428228378, 0.35886403918266296, 1],
          "intensity": 100,
          "type": "point",
          "range": 2.5,
          "name": "Blue Exhaust Center"
        },
        {
          "color": [0.39320942759513855, 0.5431056022644043, 1],
          "intensity": 50,
          "type": "point",
          "range": 1.600000023841858,
          "name": "White Exhaust Right"
        },
        {
          "color": [0.11826970428228378, 0.35886403918266296, 1],
          "intensity": 100,
          "type": "point",
          "range": 2.5,
          "name": "Blue Exhaust Right"
        }
      ]
    }
  },
  "scene": 0,
  "scenes": [
    {
      "name": "Scene",
      "nodes": [0, 2, 4, 6, 8, 10, 12]
    }
  ],
  "nodes": [
    {
      "mesh": 0,
      "name": "Star Destroyer",
      "rotation": [0, -0.7071067690849304, 0, 0.7071067690849304]
    },
    {
      "extensions": {
        "KHR_lights_punctual": {
          "light": 0
        }
      },
      "name": "White Exhaust Center_Orientation",
      "rotation": [-0.7071067690849304, 0, 0, 0.7071067690849304]
    },
    {
      "children": [1],
      "name": "White Exhaust Center",
      "translation": [-0.04018068313598633, 0, -21.976022720336914]
    },
    {
      "extensions": {
        "KHR_lights_punctual": {
          "light": 1
        }
      },
      "name": "Blue Exhaust Center_Orientation",
      "rotation": [-0.7071067690849304, 0, 0, 0.7071067690849304]
    },
    {
      "children": [3],
      "name": "Blue Exhaust Center",
      "translation": [-0.04018259048461914, 0, -24.501996994018555]
    },
    {
      "extensions": {
        "KHR_lights_punctual": {
          "light": 2
        }
      },
      "name": "White Exhaust Left_Orientation",
      "rotation": [-0.7071067690849304, 0, 0, 0.7071067690849304]
    },
    {
      "children": [5],
      "name": "White Exhaust Left",
      "translation": [7.553939342498779, 0, -21.976024627685547]
    },
    {
      "extensions": {
        "KHR_lights_punctual": {
          "light": 3
        }
      },
      "name": "Blue Exhaust Left_Orientation",
      "rotation": [-0.7071067690849304, 0, 0, 0.7071067690849304]
    },
    {
      "children": [7],
      "name": "Blue Exhaust Left",
      "translation": [7.553941249847412, 0, -23.6182918548584]
    },
    {
      "extensions": {
        "KHR_lights_punctual": {
          "light": 4
        }
      },
      "name": "White Exhaust Right_Orientation",
      "rotation": [-0.7071067690849304, 0, 0, 0.7071067690849304]
    },
    {
      "children": [9],
      "name": "White Exhaust Right",
      "translation": [-7.553941249847412, 0, -21.976022720336914]
    },
    {
      "extensions": {
        "KHR_lights_punctual": {
          "light": 5
        }
      },
      "name": "Blue Exhaust Right_Orientation",
      "rotation": [-0.7071067690849304, 0, 0, 0.7071067690849304]
    },
    {
      "children": [11],
      "name": "Blue Exhaust Right",
      "translation": [-7.553941249847412, 0, -23.618289947509766]
    }
  ],
  "materials": [
    {
      "doubleSided": true,
      "emissiveFactor": [0, 0, 0],
      "name": "Light grey",
      "pbrMetallicRoughness": {
        "baseColorFactor": [
          0.5225215554237366, 0.5225215554237366, 0.5225215554237366, 1
        ],
        "metallicFactor": 0,
        "roughnessFactor": 0.5
      }
    }
  ],
  "meshes": [
    {
      "name": "Star Destroyer",
      "primitives": [
        {
          "attributes": {
            "POSITION": 0,
            "NORMAL": 1,
            "TEXCOORD_0": 2
          },
          "indices": 3,
          "material": 0
        }
      ]
    }
  ],
  "accessors": [
    {
      "bufferView": 0,
      "componentType": 5126,
      "count": 14703,
      "max": [27.19976043701172, 11.417928695678711, 18.36328887939453],
      "min": [-25.86896514892578, -3.965409994125366, -18.28292465209961],
      "type": "VEC3"
    },
    {
      "bufferView": 1,
      "componentType": 5126,
      "count": 14703,
      "type": "VEC3"
    },
    {
      "bufferView": 2,
      "componentType": 5126,
      "count": 14703,
      "type": "VEC2"
    },
    {
      "bufferView": 3,
      "componentType": 5123,
      "count": 22800,
      "type": "SCALAR"
    }
  ],
  "bufferViews": [
    {
      "buffer": 0,
      "byteLength": 176436,
      "byteOffset": 0
    },
    {
      "buffer": 0,
      "byteLength": 176436,
      "byteOffset": 176436
    },
    {
      "buffer": 0,
      "byteLength": 117624,
      "byteOffset": 352872
    },
    {
      "buffer": 0,
      "byteLength": 45600,
      "byteOffset": 470496
    }
  ],
  "buffers": [
    {
      "byteLength": 516096,
      "uri": "data:application/octet-stream;base64,"
    }
  ]
}
