{
  "asset": {
    "generator": "Khronos glTF Blender I/O v1.2.75",
    "version": "2.0"
  },
  "scene": 0,
  "scenes": [
    {
      "name": "Scene",
      "nodes": [0]
    }
  ],
  "nodes": [
    {
      "mesh": 0,
      "name": "TIE fighter"
    }
  ],
  "materials": [
    {
      "doubleSided": true,
      "emissiveFactor": [0, 0, 0],
      "name": "Light grey",
      "pbrMetallicRoughness": {
        "baseColorFactor": [
          0.5225215554237366, 0.5225215554237366, 0.5225215554237366, 1
        ],
        "metallicFactor": 0,
        "roughnessFactor": 0.5
      }
    },
    {
      "doubleSided": true,
      "emissiveFactor": [0, 0, 0],
      "name": "Dark",
      "pbrMetallicRoughness": {
        "baseColorFactor": [
          0.09462588280439377, 0.09462588280439377, 0.09462588280439377, 1
        ],
        "metallicFactor": 0,
        "roughnessFactor": 0.5
      }
    },
    {
      "doubleSided": true,
      "emissiveFactor": [0, 0, 0],
      "name": "Tinted windows",
      "pbrMetallicRoughness": {
        "baseColorFactor": [
          0.04445475712418556, 0.04445475712418556, 0.04445475712418556, 1
        ],
        "metallicFactor": 0,
        "roughnessFactor": 0.5
      }
    },
    {
      "doubleSided": true,
      "emissiveFactor": [0, 0, 0],
      "name": "Matt grey",
      "pbrMetallicRoughness": {
        "baseColorFactor": [
          0.12823939323425293, 0.12823939323425293, 0.12823939323425293, 1
        ],
        "metallicFactor": 0,
        "roughnessFactor": 0.5
      }
    }
  ],
  "meshes": [
    {
      "name": "TIE fighter",
      "primitives": [
        {
          "attributes": {
            "POSITION": 0,
            "NORMAL": 1
          },
          "indices": 2,
          "material": 0
        },
        {
          "attributes": {
            "POSITION": 3,
            "NORMAL": 4
          },
          "indices": 5,
          "material": 1
        },
        {
          "attributes": {
            "POSITION": 6,
            "NORMAL": 7
          },
          "indices": 8,
          "material": 2
        },
        {
          "attributes": {
            "POSITION": 9,
            "NORMAL": 10
          },
          "indices": 11,
          "material": 3
        }
      ]
    }
  ],
  "accessors": [
    {
      "bufferView": 0,
      "componentType": 5126,
      "count": 13650,
      "max": [0.1613960713148117, 0.1830068975687027, 0.1391071379184723],
      "min": [-0.16137872636318207, -0.1830756515264511, -0.14309024810791016],
      "type": "VEC3"
    },
    {
      "bufferView": 1,
      "componentType": 5126,
      "count": 13650,
      "type": "VEC3"
    },
    {
      "bufferView": 2,
      "componentType": 5123,
      "count": 21966,
      "type": "SCALAR"
    },
    {
      "bufferView": 3,
      "componentType": 5126,
      "count": 148,
      "max": [0.15531225502490997, 0.175637885928154, 0.133426696062088],
      "min": [-0.15529491007328033, -0.1757066398859024, -0.13740980625152588],
      "type": "VEC3"
    },
    {
      "bufferView": 4,
      "componentType": 5126,
      "count": 148,
      "type": "VEC3"
    },
    {
      "bufferView": 5,
      "componentType": 5123,
      "count": 330,
      "type": "SCALAR"
    },
    {
      "bufferView": 6,
      "componentType": 5126,
      "count": 96,
      "max": [0.03694906830787659, 0.03690601512789726, 0.06258007138967514],
      "min": [-0.03693171590566635, -0.036974769085645676, 0.05463245138525963],
      "type": "VEC3"
    },
    {
      "bufferView": 7,
      "componentType": 5126,
      "count": 96,
      "type": "VEC3"
    },
    {
      "bufferView": 8,
      "componentType": 5123,
      "count": 144,
      "type": "SCALAR"
    },
    {
      "bufferView": 9,
      "componentType": 5126,
      "count": 1958,
      "max": [0.14605708420276642, 0.05626549944281578, 0.06764499098062515],
      "min": [-0.14603973925113678, -0.06037946790456772, -0.07579810917377472],
      "type": "VEC3"
    },
    {
      "bufferView": 10,
      "componentType": 5126,
      "count": 1958,
      "type": "VEC3"
    },
    {
      "bufferView": 11,
      "componentType": 5123,
      "count": 3000,
      "type": "SCALAR"
    }
  ],
  "bufferViews": [
    {
      "buffer": 0,
      "byteLength": 163800,
      "byteOffset": 0
    },
    {
      "buffer": 0,
      "byteLength": 163800,
      "byteOffset": 163800
    },
    {
      "buffer": 0,
      "byteLength": 43932,
      "byteOffset": 327600
    },
    {
      "buffer": 0,
      "byteLength": 1776,
      "byteOffset": 371532
    },
    {
      "buffer": 0,
      "byteLength": 1776,
      "byteOffset": 373308
    },
    {
      "buffer": 0,
      "byteLength": 660,
      "byteOffset": 375084
    },
    {
      "buffer": 0,
      "byteLength": 1152,
      "byteOffset": 375744
    },
    {
      "buffer": 0,
      "byteLength": 1152,
      "byteOffset": 376896
    },
    {
      "buffer": 0,
      "byteLength": 288,
      "byteOffset": 378048
    },
    {
      "buffer": 0,
      "byteLength": 23496,
      "byteOffset": 378336
    },
    {
      "buffer": 0,
      "byteLength": 23496,
      "byteOffset": 401832
    },
    {
      "buffer": 0,
      "byteLength": 6000,
      "byteOffset": 425328
    }
  ],
  "buffers": [
    {
      "byteLength": 431328,
      "uri": "data:application/octet-stream;base64,"
    }
  ]
}
